<svg width="2079" height="1603" xmlns="http://www.w3.org/2000/svg" xmlns:xlink="http://www.w3.org/1999/xlink" xml:space="preserve" overflow="hidden"><g transform="translate(-2258 -726)"><path d="M3121 776.001C3121 748.386 3143.39 726 3171 726L3798 726C3825.61 726 3848 748.386 3848 776.001L3848 975.999C3848 1003.61 3825.61 1026 3798 1026L3171 1026C3143.39 1026 3121 1003.61 3121 975.999Z" fill="#F19400" fill-rule="evenodd"/><text fill="#FFFFFF" font-family="Meta OT,Meta OT_MSFontService,sans-serif" font-weight="700" font-size="83" transform="matrix(1 0 0 1 3185.31 902)">Robotic Learning</text><path d="M2660 1306C2660 1278.39 2682.39 1256 2710 1256L3337 1256C3364.61 1256 3387 1278.39 3387 1306L3387 1506C3387 1533.61 3364.61 1556 3337 1556L2710 1556C2682.39 1556 2660 1533.61 2660 1506Z" fill="#F19400" fill-rule="evenodd"/><text fill="#FFFFFF" font-family="Meta OT,Meta OT_MSFontService,sans-serif" font-weight="700" font-size="83" transform="matrix(1 0 0 1 2698.97 1433)">Imitation Learning</text><path d="M3611 1306C3611 1278.39 3633.39 1256 3661 1256L4287 1256C4314.61 1256 4337 1278.39 4337 1306L4337 1506C4337 1533.61 4314.61 1556 4287 1556L3661 1556C3633.39 1556 3611 1533.61 3611 1506Z" fill="#F19400" fill-rule="evenodd"/><text fill="#FFFFFF" font-family="Meta OT,Meta OT_MSFontService,sans-serif" font-weight="700" font-size="83" transform="matrix(1 0 0 1 3714.75 1388)">Reinforcement </text><text fill="#FFFFFF" font-family="Meta OT,Meta OT_MSFontService,sans-serif" font-weight="700" font-size="83" transform="matrix(1 0 0 1 3819.9 1477)">Learning</text><path d="M2258 1761C2258 1733.39 2280.39 1711 2308 1711L2935 1711C2962.61 1711 2985 1733.39 2985 1761L2985 1961C2985 1988.61 2962.61 2011 2935 2011L2308 2011C2280.39 2011 2258 1988.61 2258 1961Z" fill="#F19400" fill-rule="evenodd"/><text fill="#FFFFFF" font-family="Meta OT,Meta OT_MSFontService,sans-serif" font-weight="700" font-size="83" transform="matrix(1 0 0 1 2319.05 1888)">Behavior Cloning</text><path d="M3081 1761C3081 1733.39 3103.39 1711 3131 1711L3758 1711C3785.61 1711 3808 1733.39 3808 1761L3808 1961C3808 1988.61 3785.61 2011 3758 2011L3131 2011C3103.39 2011 3081 1988.61 3081 1961Z" fill="#F19400" fill-rule="evenodd"/><text fill="#FFFFFF" font-family="Meta OT,Meta OT_MSFontService,sans-serif" font-weight="700" font-size="83" transform="matrix(1 0 0 1 3199.07 1848)">Learning from </text><text fill="#FFFFFF" font-family="Meta OT,Meta OT_MSFontService,sans-serif" font-weight="700" font-size="73" transform="matrix(1 0 0 1 3125.17 1929)">Videos/Observation</text><path d="M3489.58 1026 3489.58 1141.35C3489.58 1144.2 3487.27 1146.51 3484.43 1146.51L3023 1146.51 3028.16 1141.35 3028.16 1230.92C3028.16 1233.77 3025.85 1236.07 3023 1236.07 3020.15 1236.07 3017.84 1233.77 3017.84 1230.92L3017.84 1141.35C3017.84 1138.5 3020.15 1136.19 3023 1136.19L3484.43 1136.19 3479.27 1141.35 3479.27 1026C3479.27 1023.15 3481.58 1020.84 3484.43 1020.84 3487.27 1020.84 3489.58 1023.15 3489.58 1026ZM3038.47 1225.76 3023 1256.7 3007.53 1225.76Z" fill="#B0A79D"/><path d="M0-5.15625 115.35-5.15625C118.198-5.15625 120.506-2.84772 120.506 0L120.506 489.335 115.35 484.179 204.919 484.179C207.766 484.179 210.075 486.488 210.075 489.335 210.075 492.183 207.766 494.492 204.919 494.492L115.35 494.492C112.502 494.492 110.194 492.183 110.194 489.335L110.194 0 115.35 5.15625 0 5.15625C-2.84772 5.15625-5.15625 2.84772-5.15625 0-5.15625-2.84772-2.84772-5.15625 0-5.15625ZM199.762 473.867 230.7 489.335 199.762 504.804Z" fill="#B0A79D" transform="matrix(1.83697e-16 1 1 -1.83697e-16 3485 1026)"/><path d="M3028.13 1556 3028.13 1633.63C3028.13 1636.48 3025.83 1638.79 3022.98 1638.79L2621 1638.79 2626.16 1633.63 2626.16 1685.48C2626.16 1688.33 2623.85 1690.64 2621 1690.64 2618.15 1690.64 2615.84 1688.33 2615.84 1685.48L2615.84 1633.63C2615.84 1630.78 2618.15 1628.48 2621 1628.48L3022.98 1628.48 3017.82 1633.63 3017.82 1556C3017.82 1553.15 3020.13 1550.84 3022.98 1550.84 3025.83 1550.84 3028.13 1553.15 3028.13 1556ZM2636.47 1680.32 2621 1711.26 2605.53 1680.32Z" fill="#B0A79D"/><path d="M0-5.15625 77.6312-5.15625C80.479-5.15625 82.7875-2.84772 82.7875 0L82.7875 421.617 77.6312 416.461 129.481 416.461C132.329 416.461 134.637 418.769 134.637 421.617 134.637 424.465 132.329 426.773 129.481 426.773L77.6312 426.773C74.7835 426.773 72.475 424.465 72.475 421.617L72.475 0 77.6312 5.15625 0 5.15625C-2.84772 5.15625-5.15625 2.84772-5.15625 0-5.15625-2.84772-2.84772-5.15625 0-5.15625ZM124.325 406.148 155.262 421.617 124.325 437.086Z" fill="#B0A79D" transform="matrix(1.83697e-16 1 1 -1.83697e-16 3023 1556)"/><text fill="#F19400" font-family="Arial,Arial_MSFontService,sans-serif" font-weight="400" font-size="55" transform="matrix(1 0 0 1 2374.55 2111)">•</text><text font-family="Meta OT,Meta OT_MSFontService,sans-serif" font-weight="400" font-size="55" transform="matrix(1 0 0 1 2407.78 2111)">VLA</text><text font-family="Meta OT,Meta OT_MSFontService,sans-serif" font-weight="400" font-size="55" transform="matrix(1 0 0 1 2496.58 2111)">-</text><text font-family="Meta OT,Meta OT_MSFontService,sans-serif" font-weight="400" font-size="55" transform="matrix(1 0 0 1 2513.19 2111)">Modelle</text><text fill="#F19400" font-family="Arial,Arial_MSFontService,sans-serif" font-weight="400" font-size="55" transform="matrix(1 0 0 1 2374.55 2197)">•</text><text font-family="Meta OT,Meta OT_MSFontService,sans-serif" font-weight="400" font-size="55" transform="matrix(1 0 0 1 2407.78 2197)">Pretraining RL</text><text fill="#F19400" font-family="Arial,Arial_MSFontService,sans-serif" font-weight="400" font-size="55" transform="matrix(1 0 0 1 3148.37 2112)">•</text><text font-family="Meta OT,Meta OT_MSFontService,sans-serif" font-weight="400" font-size="55" transform="matrix(1 0 0 1 3181.6 2112)">Pretraining for BC &amp; RL</text><text fill="#F19400" font-family="Arial,Arial_MSFontService,sans-serif" font-weight="400" font-size="55" transform="matrix(1 0 0 1 3148.37 2198)">•</text><text font-family="Meta OT,Meta OT_MSFontService,sans-serif" font-weight="400" font-size="55" transform="matrix(1 0 0 1 3181.6 2198)">Action Recovery</text><text fill="#F19400" font-family="Arial,Arial_MSFontService,sans-serif" font-weight="400" font-size="55" transform="matrix(1 0 0 1 3148.37 2284)">•</text><text font-family="Meta OT,Meta OT_MSFontService,sans-serif" font-weight="400" font-size="55" transform="matrix(1 0 0 1 3181.6 2284)">Representation Learning</text></g></svg>